<?xml version="1.0" encoding="UTF-8"?>
<svg id="Layer_2" data-name="Layer 2" xmlns="http://www.w3.org/2000/svg" viewBox="0 0 512.27 512.27">
  <g id="Layer_1-2" data-name="Layer 1">
    <polygon points="256.14 0 281.12 130.53 354.16 19.5 327.29 149.65 437.25 75.02 362.62 184.99 492.78 158.12 381.74 231.15 512.27 256.14 381.74 281.12 492.78 354.16 362.62 327.29 437.25 437.25 327.29 362.62 354.16 492.78 281.12 381.74 256.14 512.27 231.15 381.74 158.12 492.78 184.99 362.62 75.02 437.25 149.65 327.29 19.5 354.16 130.53 281.12 0 256.14 130.53 231.15 19.5 158.12 149.65 184.99 75.02 75.02 184.99 149.65 158.12 19.5 231.15 130.53 256.14 0" style="fill: red;"/>
  </g>
</svg>