<?xml version="1.0" encoding="UTF-8"?>
<svg id="Layer_2" data-name="Layer 2" xmlns="http://www.w3.org/2000/svg" viewBox="0 0 512 512">
  <g id="Layer_1-2" data-name="Layer 1">
    <polygon points="256 0 290.68 81.67 353.97 19.49 354.75 108.21 437.02 74.98 403.79 157.25 492.51 158.03 430.33 221.32 512 256 430.33 290.68 492.51 353.97 403.79 354.75 437.02 437.02 354.75 403.79 353.97 492.51 290.68 430.33 256 512 221.32 430.33 158.03 492.51 157.25 403.79 74.98 437.02 108.21 354.75 19.49 353.97 81.67 290.68 0 256 81.67 221.32 19.49 158.03 108.21 157.25 74.98 74.98 157.25 108.21 158.03 19.49 221.32 81.67 256 0" style="fill: red;"/>
  </g>
</svg>